<svg xmlns="http://www.w3.org/2000/svg" viewBox="0 0 159.71 93.12"><defs><style>.cls-1{fill:#644877;}.cls-2{fill:none;stroke:#db7510;stroke-width:2.89px;}.cls-3{fill:#868686;}</style></defs><g id="Capa_2" data-name="Capa 2"><g id="Capa_1-2" data-name="Capa 1"><path class="cls-1" d="M17.21,30a5.46,5.46,0,0,0-5.81-4.68c-5.59,0-7.31,4.41-7.31,9.17,0,4.32,2,8.59,6.86,8.59,3.72,0,5.94-2.18,6.44-5.72h4C20.48,43.09,16.89,46.5,11,46.5c-7.17,0-11-5-11-12S3.64,21.92,11.08,21.92c5.32,0,9.58,2.5,10.13,8.09Z"/><path class="cls-1" d="M25.89,22.46h3.85V46H25.89Z"/><path class="cls-1" d="M41.1,22.46h4.68v3.41H41.1V40.46c0,1.77.5,2.09,2.9,2.09h1.78V46h-3c-4,0-5.58-.82-5.58-5.14V25.87h-4V22.46h4"/><path class="cls-1" d="M70.08,38.5c-1,5.18-4.77,8-10,8-7.49,0-11-5.18-11.27-12.36,0-7,4.64-12.22,11-12.22,8.32,0,10.86,7.77,10.63,13.45H52.86c-.13,4.09,2.18,7.72,7.32,7.72,3.18,0,5.4-1.54,6.08-4.59ZM66.36,32a6.77,6.77,0,0,0-6.77-6.63c-4.05,0-6.46,3-6.73,6.63Z"/><path class="cls-1" d="M74.58,22.46h3.86v3.19h.09c1.27-2.59,4.27-3.73,7.49-3.73,7.23,0,10.82,5.72,10.82,12.36S93.29,46.5,86.11,46.5c-2.4,0-5.86-.91-7.58-3.68h-.09V58.11H74.58Zm10.9,2.87c-5.18,0-7.18,4.45-7.18,8.86,0,4.63,2.09,8.9,7.41,8.9s7-4.5,7-9.08C92.75,29.6,90.47,25.33,85.48,25.33Z"/><line class="cls-2" x1="112.86" y1="36.5" x2="142.06" y2="19.73"/><line class="cls-2" x1="104.36" y1="32.8" x2="103.22" y2="13.13"/><line class="cls-2" x1="128.55" y1="0.75" x2="108.73" y2="33.32"/><path class="cls-2" d="M126.86,42h0c-5.35-3.38-9.65-2.45-12.77-.92m12.77.92c9.55,6,18.9-2.09,18.9-2.09"/><path class="cls-3" d="M11.06,69.18c-.16,2.74-1.41,4.27-3.56,4.27-2.45,0-3.83-1.9-3.83-6.2s1.38-6.19,3.83-6.19,3.44,1.73,3.44,3.69H9.86C9.86,63.13,9,62,7.5,62c-1.71,0-2.75,1.41-2.75,5.28s1,5.29,2.75,5.29c1.51,0,2.36-1.29,2.48-3.36Z"/><path class="cls-3" d="M18,70.29c-.15,1.9-1.19,3.16-2.87,3.16-1.88,0-3-1.31-3-4.67,0-3.09,1.1-4.65,3.07-4.65s2.87,1.36,2.87,4.33v.37H13.22v.42c0,2.57.91,3.36,1.9,3.36s1.71-.76,1.88-2.32ZM17,68c0-2.21-.65-3-1.89-3s-1.87.81-1.9,3Z"/><path class="cls-3" d="M19.67,64.34h.9v1.24h0a2.5,2.5,0,0,1,2.28-1.45,2.09,2.09,0,0,1,2.28,2.39v6.73h-1V66.8c0-1.22-.5-1.83-1.52-1.83a2,2,0,0,0-2,2.28v6h-1Z"/><path class="cls-3" d="M27.49,65.17H26.26v-.83h1.23V61.87h1v2.47h1.58v.83H28.49v6.4c0,.7.31.94,1,.94a2.35,2.35,0,0,0,.62-.1v.84a1.81,1.81,0,0,1-.7.1c-1.36,0-1.88-.37-1.88-1.56Z"/><path class="cls-3" d="M31.16,64.34h1v1.39h0a2.37,2.37,0,0,1,2.25-1.6,1.34,1.34,0,0,1,.35.05v1a2.7,2.7,0,0,0-.48,0c-1.11,0-2.15.81-2.15,2.53v5.58h-1Z"/><path class="cls-3" d="M38.43,64.13c2,0,3.07,1.56,3.07,4.65s-1.11,4.67-3.07,4.67-3.07-1.56-3.07-4.67S36.47,64.13,38.43,64.13Zm0,8.48c1.12,0,2-1,2-3.83s-.88-3.81-2-3.81-2,1-2,3.81S37.31,72.61,38.43,72.61Z"/><path class="cls-3" d="M51.71,71.77h0a2.2,2.2,0,0,1-2.18,1.68c-2,0-2.85-1.58-2.85-4.67s.89-4.65,2.85-4.65a2,2,0,0,1,2.08,1.55h0V61.26h1v12h-.9Zm-2.05.84c1,0,1.94-.52,1.94-3.83S50.68,65,49.66,65s-1.95.52-1.95,3.81S48.65,72.61,49.66,72.61Z"/><path class="cls-3" d="M60,70.29c-.16,1.9-1.2,3.16-2.87,3.16-1.88,0-3-1.31-3-4.67,0-3.09,1.11-4.65,3.07-4.65S60,65.49,60,68.46v.37H55.16v.42c0,2.57.91,3.36,1.9,3.36s1.71-.76,1.88-2.32ZM59,68c0-2.21-.66-3-1.9-3s-1.86.81-1.9,3Z"/><path class="cls-3" d="M65.67,61.26h1.07v12H65.67Z"/><path class="cls-3" d="M68.72,64.34h.91v1.24h0A2.52,2.52,0,0,1,72,64.13a2.09,2.09,0,0,1,2.28,2.39v6.73h-1V66.8c0-1.22-.5-1.83-1.53-1.83a2,2,0,0,0-2,2.28v6h-1Z"/><path class="cls-3" d="M76.18,64.34h.9v1.24h0a2.5,2.5,0,0,1,2.28-1.45,2.09,2.09,0,0,1,2.28,2.39v6.73h-1V66.8c0-1.22-.5-1.83-1.52-1.83a2,2,0,0,0-2,2.28v6h-1Z"/><path class="cls-3" d="M86.23,64.13c2,0,3.07,1.56,3.07,4.65s-1.11,4.67-3.07,4.67-3.07-1.56-3.07-4.67S84.27,64.13,86.23,64.13Zm0,8.48c1.12,0,2-1,2-3.83s-.88-3.81-2-3.81-2,1-2,3.81S85.1,72.61,86.23,72.61Z"/><path class="cls-3" d="M89.92,64.34H91l2,7.76h0l1.81-7.76H95.9l-2.35,8.91H92.41Z"/><path class="cls-3" d="M96.8,67c0-1.83.88-2.86,2.75-2.86s2.52,1,2.52,2.37v5.27c0,.5.17.74.52.74h.29v.74a1.65,1.65,0,0,1-.47.1c-.79,0-1.29-.19-1.29-1.11v-.3h0a2.18,2.18,0,0,1-2.3,1.51c-1.56,0-2.26-1-2.26-2.52a2.35,2.35,0,0,1,1.79-2.47l1.9-.53c.7-.21.86-.37.86-1.41A1.37,1.37,0,0,0,99.52,65c-1.19,0-1.71.72-1.71,2Zm4.27,1.22h0c-.1.3-.67.49-1.07.59l-.84.22a1.74,1.74,0,0,0-1.53,1.84c0,1,.54,1.75,1.41,1.75,1.23,0,2.07-.93,2.07-2.52Z"/><path class="cls-3" d="M109.49,70.29c-.15,1.9-1.19,3.16-2.84,3.16-1.88,0-3-1.31-3-4.67,0-3.09,1.1-4.65,3.07-4.65,1.68,0,2.65,1,2.75,2.86h-1c-.11-1.4-.67-2-1.74-2s-2,.67-2,3.83c0,3.35,1,3.81,1.9,3.81s1.68-.76,1.84-2.32Z"/><path class="cls-3" d="M111,61.26h1V63h-1Zm0,3.08h1v8.91h-1Z"/><path class="cls-3" d="M116.66,64.13c2,0,3.07,1.56,3.07,4.65s-1.11,4.67-3.07,4.67-3.07-1.56-3.07-4.67S114.69,64.13,116.66,64.13Zm0,8.48c1.12,0,2-1,2-3.83s-.87-3.81-2-3.81-2,1-2,3.81S115.53,72.61,116.66,72.61Zm1.73-11.75-1.65,2.37h-.8l1.25-2.37Z"/><path class="cls-3" d="M121.21,64.34h.9v1.24h0a2.5,2.5,0,0,1,2.28-1.45,2.09,2.09,0,0,1,2.28,2.39v6.73h-1V66.8c0-1.22-.5-1.83-1.52-1.83a2,2,0,0,0-2,2.28v6h-1Z"/><path class="cls-3" d="M9.29,87.08C9.14,89,8.1,90.23,6.42,90.23c-1.88,0-3-1.31-3-4.66,0-3.09,1.1-4.65,3.07-4.65s2.87,1.36,2.87,4.33v.37H4.51V86c0,2.56.91,3.35,1.9,3.35s1.71-.75,1.88-2.31Zm-1-2.3c0-2.22-.65-3-1.89-3s-1.87.8-1.9,3Z"/><path class="cls-3" d="M11,81.12h.9v1.24h0a2.49,2.49,0,0,1,2.28-1.44,2.09,2.09,0,0,1,2.28,2.38V90h-1V83.59c0-1.23-.5-1.83-1.52-1.83A2,2,0,0,0,12,84v6H11Z"/><path class="cls-3" d="M24,79H20.94v-.9h7.25V79H25.1V90H24Z"/><path class="cls-3" d="M33.51,87.08c-.15,1.89-1.19,3.15-2.87,3.15-1.88,0-3-1.31-3-4.66,0-3.09,1.1-4.65,3.07-4.65s2.87,1.36,2.87,4.33v.37H28.73V86c0,2.56.91,3.35,1.9,3.35s1.71-.75,1.87-2.31Zm-1-2.3c0-2.22-.65-3-1.89-3s-1.87.8-1.9,3Z"/><path class="cls-3" d="M40.53,87.08c-.15,1.89-1.19,3.15-2.84,3.15-1.88,0-3-1.31-3-4.66,0-3.09,1.11-4.65,3.08-4.65,1.67,0,2.65,1,2.75,2.85h-1c-.12-1.39-.67-2-1.74-2s-2,.67-2,3.82c0,3.36.95,3.81,1.89,3.81s1.68-.75,1.85-2.31Z"/><path class="cls-3" d="M42,81.12h.9v1.24h0a2.49,2.49,0,0,1,2.28-1.44,2.09,2.09,0,0,1,2.28,2.38V90h-1V83.59c0-1.23-.5-1.83-1.52-1.83A2,2,0,0,0,43,84v6H42Z"/><path class="cls-3" d="M52.06,80.92c2,0,3.07,1.56,3.07,4.65S54,90.23,52.06,90.23,49,88.67,49,85.57,50.09,80.92,52.06,80.92Zm0,8.47c1.12,0,2-1,2-3.82s-.88-3.81-2-3.81-2,1-2,3.81S50.93,89.39,52.06,89.39Z"/><path class="cls-3" d="M56.67,78.05h1V90h-1Z"/><path class="cls-3" d="M62.3,80.92c2,0,3.07,1.56,3.07,4.65s-1.11,4.66-3.07,4.66-3.07-1.56-3.07-4.66S60.33,80.92,62.3,80.92Zm0,8.47c1.12,0,2-1,2-3.82s-.87-3.81-2-3.81-2,1-2,3.81S61.17,89.39,62.3,89.39Z"/><path class="cls-3" d="M71.44,81.12h.91v8.27c0,2.47-.91,3.73-2.92,3.73-1.73,0-2.64-.91-2.65-2.19h1a1.5,1.5,0,0,0,1.68,1.35c1.23,0,1.88-.86,1.88-2.44V88.43h0A2.08,2.08,0,0,1,69.23,90c-1.38,0-2.75-.91-2.75-4.46,0-3.08.88-4.65,2.85-4.65a2.12,2.12,0,0,1,2.08,1.57h0Zm-2,8.07c1.19,0,1.89-.87,1.89-3.73s-.7-3.7-1.89-3.7-1.9.87-1.9,3.7S68.25,89.19,69.45,89.19Z"/><path class="cls-3" d="M76.6,77.65,75,80h-.8l1.25-2.36Zm-2.24,3.47h1V90h-1Z"/><path class="cls-3" d="M77.2,83.77c0-1.83.87-2.85,2.75-2.85s2.52,1,2.52,2.36v5.27c0,.51.17.74.52.74h.28V90a1.28,1.28,0,0,1-.47.1c-.78,0-1.29-.18-1.29-1.11v-.3h0a2.18,2.18,0,0,1-2.3,1.51c-1.56,0-2.27-1-2.27-2.52a2.34,2.34,0,0,1,1.8-2.46l1.9-.54c.7-.2.85-.37.85-1.41a1.36,1.36,0,0,0-1.54-1.54c-1.19,0-1.71.72-1.71,2ZM81.46,85h0c-.1.31-.67.49-1.08.59l-.83.22A1.74,1.74,0,0,0,78,87.65c0,1,.54,1.74,1.41,1.74,1.22,0,2.06-.92,2.06-2.52Z"/><path class="cls-3" d="M87.71,81.12h1.07l2,7.72h0l1.8-7.72h1.07l-2.6,9.63c-.47,1.75-1,2.23-2.37,2.23A6.45,6.45,0,0,1,88,93v-.84q.33,0,.66,0c.62,0,1-.25,1.32-1.19l.25-.84Z"/><path class="cls-3" d="M98.77,78.05H102c2.32,0,3.29,1.36,3.29,3.39,0,1.84-.92,3.39-3.65,3.39h-1.8V90H98.77Zm1.07,5.87h1.83a2.25,2.25,0,0,0,2.55-2.48c0-1.8-.91-2.49-2.55-2.49H99.84Z"/><path class="cls-3" d="M112.34,87.08c-.15,1.89-1.19,3.15-2.87,3.15-1.88,0-3-1.31-3-4.66,0-3.09,1.1-4.65,3.07-4.65s2.87,1.36,2.87,4.33v.37h-4.87V86c0,2.56.91,3.35,1.9,3.35s1.71-.75,1.88-2.31Zm-1-2.3c0-2.22-.65-3-1.89-3s-1.87.8-1.9,3Z"/><path class="cls-3" d="M118.7,88.55h0a2.19,2.19,0,0,1-2.18,1.68c-2,0-2.85-1.58-2.85-4.66s.89-4.65,2.85-4.65a2,2,0,0,1,2.08,1.54h0V78.05h1V90h-.91Zm-2,.84c1,0,1.94-.52,1.94-3.82s-.92-3.81-1.94-3.81-2,.52-2,3.81S115.65,89.39,116.66,89.39Z"/><path class="cls-3" d="M121.27,83.77c0-1.83.88-2.85,2.75-2.85s2.52,1,2.52,2.36v5.27c0,.51.17.74.52.74h.29V90a1.37,1.37,0,0,1-.47.1c-.79,0-1.29-.18-1.29-1.11v-.3h0a2.18,2.18,0,0,1-2.3,1.51c-1.56,0-2.26-1-2.26-2.52a2.34,2.34,0,0,1,1.79-2.46l1.9-.54c.7-.2.86-.37.86-1.41A1.37,1.37,0,0,0,124,81.76c-1.19,0-1.71.72-1.71,2ZM125.54,85h0c-.1.31-.67.49-1.07.59l-.84.22a1.74,1.74,0,0,0-1.53,1.85c0,1,.54,1.74,1.41,1.74,1.23,0,2.07-.92,2.07-2.52Z"/><path class="cls-3" d="M133.27,81.12h.91v8.27c0,2.47-.91,3.73-2.92,3.73-1.73,0-2.64-.91-2.65-2.19h1a1.5,1.5,0,0,0,1.68,1.35c1.23,0,1.88-.86,1.88-2.44V88.43h0a2.08,2.08,0,0,1-2.08,1.6c-1.38,0-2.75-.91-2.75-4.46,0-3.08.88-4.65,2.85-4.65a2.12,2.12,0,0,1,2.08,1.57h0Zm-2,8.07c1.19,0,1.89-.87,1.89-3.73s-.7-3.7-1.89-3.7-1.9.87-1.9,3.7S130.08,89.19,131.28,89.19Z"/><path class="cls-3" d="M138.73,80.92c2,0,3.07,1.56,3.07,4.65s-1.11,4.66-3.07,4.66-3.07-1.56-3.07-4.66S136.76,80.92,138.73,80.92Zm0,8.47c1.12,0,2-1,2-3.82s-.87-3.81-2-3.81-2,1-2,3.81S137.6,89.39,138.73,89.39Z"/><path class="cls-3" d="M147.87,81.12h.91v8.27c0,2.47-.91,3.73-2.92,3.73-1.73,0-2.63-.91-2.65-2.19h1a1.49,1.49,0,0,0,1.67,1.35c1.23,0,1.88-.86,1.88-2.44V88.43h0a2.08,2.08,0,0,1-2.08,1.6c-1.38,0-2.75-.91-2.75-4.46,0-3.08.89-4.65,2.85-4.65a2.12,2.12,0,0,1,2.08,1.57h0Zm-2,8.07c1.19,0,1.89-.87,1.89-3.73s-.7-3.7-1.89-3.7-1.9.87-1.9,3.7S144.69,89.19,145.88,89.19Z"/><path class="cls-3" d="M153,77.65,151.38,80h-.8l1.26-2.36Zm-2.23,3.47h1V90h-1Z"/><path class="cls-3" d="M153.63,83.77c0-1.83.87-2.85,2.75-2.85s2.52,1,2.52,2.36v5.27c0,.51.17.74.52.74h.29V90a1.37,1.37,0,0,1-.47.1c-.79,0-1.3-.18-1.3-1.11v-.3h0a2.18,2.18,0,0,1-2.3,1.51c-1.56,0-2.26-1-2.26-2.52a2.34,2.34,0,0,1,1.79-2.46l1.9-.54c.7-.2.85-.37.85-1.41a1.36,1.36,0,0,0-1.54-1.54c-1.19,0-1.71.72-1.71,2ZM157.89,85h0c-.1.31-.67.49-1.07.59l-.84.22a1.74,1.74,0,0,0-1.53,1.85c0,1,.54,1.74,1.41,1.74,1.22,0,2.06-.92,2.06-2.52Z"/><circle class="cls-1" cx="105.72" cy="40.73" r="5.04"/></g></g></svg>