<svg xmlns="http://www.w3.org/2000/svg" viewBox="0 0 74.82 74.82"><defs><style>.cls-1{fill:#db7510;}.cls-2{fill:#fff;}</style></defs><g id="Capa_2" data-name="Capa 2"><g id="Capa_1-2" data-name="Capa 1"><circle class="cls-1" cx="37.41" cy="37.41" r="37.41"/><circle class="cls-2" cx="37.41" cy="17.92" r="6.02"/><path class="cls-2" d="M46.87,47.57c.76.34,1.14.66,1.14,1,0,.75-1.23,2.25-3.7,4.47q-5,4.54-9.22,4.55c-2.06,0-3.1-1-3.1-3.06a70.36,70.36,0,0,1,1.28-7.94L34.92,38l.43-2.17.34-1.73a10.32,10.32,0,0,0,.21-1.86c0-1.05-.39-1.57-1.18-1.57q-3.3,0-7.11,5.39c-.53-.36-.8-.72-.8-1.07,0-1.29,1.59-3,4.78-5.18s5.73-3.24,7.62-3.24q3.2,0,3.19,3.27a18.64,18.64,0,0,1-.34,2.58l-.38,2.12c0,.16-.19,1-.47,2.55l-1.74,9-.43,2a29,29,0,0,0-.55,4c0,.9.35,1.36,1.06,1.36Q43.11,53.47,46.87,47.57Z"/></g></g></svg>