<svg xmlns="http://www.w3.org/2000/svg" viewBox="0 0 291.16 37.8"><defs><style>.cls-1{fill:#ff7621;}.cls-2{fill:#1d2554;}</style></defs><g id="Capa_2" data-name="Capa 2"><g id="Capa_1-2" data-name="Capa 1"><path class="cls-1" d="M110.22,7.51h5l8.13,29.61h-3.9L117.28,29h-9.64l-2.25,8.13H101.5ZM108.4,26h8.12l-3.85-14.3h-.08Z"/><path class="cls-1" d="M144,27c-.34,5.6-2.58,10.74-9.18,10.74-8.6,0-9.74-7.92-9.74-15.39s1.4-15.38,9.74-15.38c6.17,0,8.76,3.4,8.93,9.2h-3.9c-.08-3.36-1.18-6.22-5-6.22-5.17,0-5.85,5.56-5.85,12.4s.68,12.4,5.85,12.4c4.52,0,5.16-4.14,5.29-7.75Z"/><path class="cls-1" d="M153.35,7.51h5l8.13,29.61h-3.9L160.41,29h-9.65l-2.24,8.13h-3.89ZM151.53,26h8.12L155.8,11.7h-.08Z"/><path class="cls-1" d="M169,7.51h8.09c9.39,0,10.58,6.63,10.58,14.8,0,7.47-1.91,14.81-10.2,14.81H169Zm3.73,26.62h3.89c6.44,0,7.16-6.47,7.16-11.77,0-5.73-.39-11.87-7.16-11.87h-3.89Z"/><path class="cls-1" d="M192.12,7.51h15.61v3.23H195.84V20h11.22v3.24H195.84V33.89h12.4v3.23H192.12ZM200.84,0H205l-4.57,5.89h-2.54Z"/><path class="cls-1" d="M211.8,7.51h6.26L224.11,31h.09l6.05-23.47h6.26V37.12h-3.72V11.24h-.08L226,37.12h-3.73l-6.68-25.88h-.09V37.12H211.8Z"/><path class="cls-1" d="M241.51,7.51h3.72V37.12h-3.72Z"/><path class="cls-1" d="M268.64,27c-.34,5.6-2.58,10.74-9.18,10.74-8.6,0-9.74-7.92-9.74-15.39s1.4-15.38,9.74-15.38c6.17,0,8.76,3.4,8.93,9.2h-3.9c-.08-3.36-1.18-6.22-5-6.22-5.17,0-5.85,5.56-5.85,12.4s.68,12.4,5.85,12.4c4.52,0,5.16-4.14,5.29-7.75Z"/><path class="cls-1" d="M278,7.51h5l8.13,29.61h-3.9L285.1,29h-9.65l-2.24,8.13h-3.89ZM276.22,26h8.12l-3.85-14.3h-.08Z"/><path class="cls-2" d="M8.11,33.46a4.06,4.06,0,1,1-4-4.05A4.05,4.05,0,0,1,8.11,33.46Z"/><path class="cls-2" d="M35.79,25.88c0,8-4.83,11.92-12.93,11.92S10,33.94,10,25.88V7.42h6.65V25.88c0,3.24.85,6.44,6.24,6.44,4.75,0,6.27-2,6.27-6.44V7.42h6.66Z"/><path class="cls-2" d="M41,7.42H55.22c5.76,0,9.66,1.83,9.66,7.36A6.5,6.5,0,0,1,60.77,21a7.26,7.26,0,0,1,5.56,7.52c0,6-5.22,8.61-10.69,8.61H41Zm6.65,12h6.75c2.33,0,4.07-1,4.07-3.53,0-2.82-2.21-3.41-4.58-3.41H47.62Zm0,12.6h7.13c2.63,0,4.92-.84,4.92-3.91s-2-4.24-4.79-4.24H47.62Z"/><path class="cls-2" d="M78.54,7.42h6.83L96.69,37.1H89.78l-2.29-6.61H76.17L73.79,37.1H67.05ZM77.9,25.63h7.85L81.93,14.74h-.08Z"/></g></g></svg>