<svg xmlns="http://www.w3.org/2000/svg" viewBox="0 0 93.43 57.15"><defs><style>.cls-1{fill:#644877;}</style></defs><g id="Capa_2" data-name="Capa 2"><g id="Capa_1-2" data-name="Capa 1"><path d="M7.84,24.49a3.87,3.87,0,0,1-3.92,3.82,3.82,3.82,0,1,1,0-7.63A3.87,3.87,0,0,1,7.84,24.49Z"/><path d="M34.58,17.36c0,7.54-4.67,11.21-12.49,11.21S9.63,24.94,9.63,17.36V0h6.43V17.36c0,3,.82,6.05,6,6.05,4.59,0,6.06-1.91,6.06-6.05V0h6.43Z"/><path d="M39.58,0H53.35c5.57,0,9.34,1.72,9.34,6.92a6.1,6.1,0,0,1-4,5.82,6.87,6.87,0,0,1,5.37,7.08c0,5.67-5,8.09-10.33,8.09H39.58ZM46,11.3h6.51c2.25,0,3.94-1,3.94-3.33,0-2.65-2.14-3.2-4.43-3.2H46Zm0,11.84H52.9c2.54,0,4.75-.78,4.75-3.67s-1.88-4-4.63-4H46Z"/><path d="M75.89,0h6.59l11,27.91H86.75l-2.22-6.22H73.59L71.3,27.91H64.78Zm-.62,17.12h7.58L79.17,6.88h-.09Z"/><path class="cls-1" d="M28.63,37.35a3.93,3.93,0,0,0-4.21-3.29c-4,0-5.29,3.1-5.29,6.46,0,3,1.41,6,5,6a4.35,4.35,0,0,0,4.67-4h2.86C31,46.57,28.4,49,24.13,49c-5.2,0-8-3.52-8-8.45s2.63-8.87,8-8.87c3.85,0,6.93,1.76,7.33,5.7Z"/><path class="cls-1" d="M34.9,32h2.8V48.59H34.9Z"/><path class="cls-1" d="M45.91,32H49.3v2.4H45.91V44.71c0,1.25.36,1.48,2.11,1.48H49.3v2.4H47.16c-2.89,0-4-.58-4-3.62V34.44H40.23V32h2.89"/><path class="cls-1" d="M66.89,43.34C66.13,47,63.44,49,59.62,49c-5.42,0-8-3.65-8.15-8.71,0-5,3.35-8.61,8-8.61,6,0,7.86,5.48,7.69,9.48H54.43a4.93,4.93,0,0,0,5.29,5.44c2.3,0,3.92-1.09,4.41-3.23Zm-2.7-4.61a4.88,4.88,0,0,0-9.76,0Z"/><path class="cls-1" d="M70.14,32h2.8v2.24H73c.92-1.83,3.09-2.63,5.43-2.63,5.23,0,7.82,4,7.82,8.71S83.69,49,78.49,49c-1.74,0-4.24-.64-5.49-2.59h-.06V57.15h-2.8Zm7.89,2c-3.74,0-5.19,3.13-5.19,6.24,0,3.26,1.51,6.27,5.36,6.27s5.09-3.17,5.09-6.4S81.65,34.06,78,34.06Z"/></g></g></svg>