<svg xmlns="http://www.w3.org/2000/svg" viewBox="0 0 67.24 51.35"><defs><style>.cls-1{fill:#644877;}</style></defs><g id="Capa_2" data-name="Capa 2"><g id="Capa_1-2" data-name="Capa 1"><path class="cls-1" d="M51.28,43.34a5,5,0,0,1-8.77,3.35L33.05,36.1,19.24,49.88a5,5,0,1,1-7.1-7.11L29.71,25.23a5,5,0,0,1,7.3.21L50,40A5,5,0,0,1,51.28,43.34Z"/><path class="cls-1" d="M67.24,33.62a5,5,0,0,1-8.58,3.55l-25-25-25,25a5,5,0,1,1-7.11-7.1l28.6-28.6a5,5,0,0,1,7.1,0l28.59,28.6A5,5,0,0,1,67.24,33.62Z"/></g></g></svg>